# xmcd
#
# Track frame offsets: 
#        150
#        11426
#        25583
#        40423
#        50279
#        63545
#        72658
#        84517
#        95794
#        109925
#
# Disc length: 1640 seconds
#
# Revision: 0
# Processed by: cddbd v1.5.2PL0 Copyright (c) Steve Scherf et al.
# Submitted via: ExactAudioCopy v0.95b3
#
DISCID=8406660a
DTITLE=Sullivan Family, The - Remembers the Louvin Brothers
DYEAR=1900
DGENRE=Bluegrass
TTITLE0=This Little Light of Mine
TTITLE1=The Family Who Prays
TTITLE2=God Bless Her
TTITLE3=Where Will You Build
TTITLE4=Alabama
TTITLE5=Love Thy Neighbor as Thyself
TTITLE6=Praying
TTITLE7=I Just Steal Away and Pray
TTITLE8=Insured Beyond the Grave
TTITLE9=Born Again
EXTD=
EXTT0=
EXTT1=
EXTT2=
EXTT3=
EXTT4=
EXTT5=
EXTT6=
EXTT7=
EXTT8=
EXTT9=
PLAYORDER=
